<svg width="132" height="38" viewBox="0 0 132 38" fill="none" xmlns="http://www.w3.org/2000/svg">
<path fill-rule="evenodd" clip-rule="evenodd" d="M83.1041 11.227L80.9252 7.57299L77.0577 9.40002L74.8789 5.73516L71.0114 7.57299L68.8434 3.89732L64.9759 5.73516L62.7971 2.07029L58.9296 3.90813L56.7616 0.232452L52.8833 2.07029L44.6798 28.5784L54.6481 31.6054C55.0236 30.4106 55.8174 29.3885 56.8861 28.7238C57.9547 28.0591 59.2277 27.7957 60.475 27.9811C61.7223 28.1665 62.8616 28.7885 63.6871 29.7347C64.5125 30.681 64.9697 31.889 64.9759 33.1406V33.2487C64.9977 33.7243 64.9433 34.2 64.8016 34.6757L74.9333 37.7568L83.1041 11.227Z" fill="#D61920"/>
<path fill-rule="evenodd" clip-rule="evenodd" d="M53.2319 26.3946C52.9799 26.3533 52.7512 26.2236 52.5873 26.0292C52.4234 25.8349 52.3351 25.5886 52.3385 25.3352V12.3622C52.3371 12.2198 52.3643 12.0786 52.4185 11.9468C52.4727 11.815 52.5529 11.6952 52.6544 11.5945C52.7558 11.4938 52.8765 11.4143 53.0093 11.3605C53.1422 11.3066 53.2845 11.2797 53.428 11.2811H62.8733C63.4299 11.2797 63.9812 11.3871 64.4959 11.5971C65.0106 11.8071 65.4786 12.1157 65.8732 12.5052C66.2677 12.8947 66.5811 13.3575 66.7954 13.8672C67.0097 14.3769 67.1207 14.9234 67.1221 15.4757V25.3352C67.1218 25.4944 67.0861 25.6516 67.0175 25.7955C66.9489 25.9394 66.8491 26.0665 66.7252 26.1678C66.6014 26.269 66.4565 26.3418 66.301 26.381C66.1455 26.4202 65.9832 26.4249 65.8257 26.3946C65.5757 26.351 65.3496 26.2203 65.1878 26.0262C65.0261 25.832 64.9394 25.587 64.9433 25.3352V15.4865C64.9433 14.9417 64.7252 14.4193 64.337 14.0341C63.9488 13.6489 63.4223 13.4325 62.8733 13.4325H60.8143V25.3244C60.8152 25.4692 60.7867 25.6128 60.7305 25.7465C60.6744 25.8802 60.5917 26.0013 60.4875 26.1027C60.3634 26.2248 60.2114 26.3151 60.0444 26.366C59.8774 26.4168 59.7005 26.4266 59.5288 26.3946C59.2768 26.3533 59.0481 26.2236 58.8842 26.0292C58.7203 25.8349 58.632 25.5886 58.6355 25.3352V13.4325H54.5174V25.3244C54.5184 25.4834 54.4841 25.6407 54.4168 25.785C54.3495 25.9294 54.251 26.0572 54.1282 26.1594C54.0054 26.2616 53.8614 26.3357 53.7065 26.3764C53.5516 26.417 53.3895 26.4232 53.2319 26.3946ZM68.9415 32.0487C68.6876 32.0071 68.4574 31.8758 68.2933 31.6792C68.1291 31.4825 68.0421 31.2337 68.0481 30.9784C68.0493 30.6948 68.1628 30.423 68.3641 30.2216C68.5652 30.018 68.8393 29.9014 69.1267 29.8973C70.0527 29.8973 70.848 29.3135 71.1094 28.4379L72.2315 24.7298L68.5602 12.546C68.5164 12.4097 68.5003 12.2662 68.5128 12.1237C68.5253 11.9812 68.5662 11.8426 68.633 11.7159C68.6999 11.5892 68.7915 11.4769 68.9024 11.3856C69.0133 11.2943 69.1414 11.2257 69.2792 11.1838C69.5536 11.1083 69.8468 11.1403 70.0981 11.273C70.3495 11.4058 70.5399 11.6293 70.6301 11.8973L73.3537 20.9784L76.1208 11.8973C76.2515 11.4 76.8072 11.0649 77.3737 11.173L77.4499 11.1838C78.0382 11.3676 78.365 11.9838 78.1907 12.5568L74.4104 25.0541L73.212 29.0541C72.9431 29.9149 72.4099 30.6708 71.6868 31.2162C70.9514 31.7636 70.0569 32.0595 69.1376 32.0595C69.072 32.062 69.0063 32.0584 68.9415 32.0487Z" fill="#FEFEFE"/>
<path fill-rule="evenodd" clip-rule="evenodd" d="M2.35545 24.0271H4.49074C5.05994 24.0271 5.60583 23.8027 6.00831 23.4033C6.4108 23.0039 6.63691 22.4622 6.63691 21.8973V15.6595C6.63835 15.3798 6.58426 15.1026 6.47772 14.8437C6.37119 14.5847 6.2143 14.3492 6.01602 14.1504C5.81774 13.9516 5.58195 13.7936 5.32211 13.6852C5.06227 13.5769 4.78347 13.5204 4.50163 13.519H2.35545V24.0055V24.0271ZM1.01545 26.2541C0.753864 26.2103 0.516718 26.075 0.346882 25.8727C0.177046 25.6705 0.0857273 25.4146 0.0894335 25.1514V5.77843C0.0875078 5.63021 0.115425 5.48309 0.171547 5.34572C0.22767 5.20835 0.310868 5.08347 0.416263 4.97843C0.543776 4.84704 0.701865 4.74874 0.87663 4.69219C1.0514 4.63564 1.23749 4.62256 1.41854 4.6541C1.96325 4.76221 2.35545 5.21626 2.35545 5.76762V11.2811H4.49074C5.06964 11.2797 5.64314 11.3916 6.17839 11.6105C6.71363 11.8293 7.20012 12.1508 7.60997 12.5565C8.01982 12.9622 8.345 13.4442 8.56686 13.9748C8.78873 14.5054 8.90293 15.0742 8.90293 15.6487V21.8865C8.90005 23.044 8.43542 24.1533 7.61064 24.9717C6.78586 25.7902 5.66804 26.2512 4.50163 26.2541H1.22244C1.14963 26.2584 1.07657 26.2548 1.00456 26.2433L1.01545 26.2541Z" fill="#333545"/>
<path fill-rule="evenodd" clip-rule="evenodd" d="M16.5834 13.4325C16.4611 13.4112 16.3372 13.4004 16.213 13.4C15.9304 13.3971 15.65 13.4502 15.3883 13.5562C15.1266 13.6623 14.8888 13.819 14.6889 14.0174C14.4891 14.2157 14.3311 14.4516 14.2243 14.7113C14.1174 14.971 14.0639 15.2493 14.0668 15.5298V22.027C14.0654 22.3071 14.1199 22.5847 14.2272 22.8438C14.3346 23.1028 14.4926 23.3381 14.6922 23.5362C14.8918 23.7342 15.129 23.8911 15.39 23.9976C15.651 24.1041 15.9308 24.1582 16.213 24.1568C16.7822 24.1568 17.3281 23.9324 17.7306 23.533C18.1331 23.1336 18.3592 22.5919 18.3592 22.027V15.5406C18.3592 14.4919 17.6075 13.6162 16.5834 13.4325ZM15.4395 26.3514C14.4181 26.1731 13.4929 25.6425 12.8272 24.8533C12.1614 24.0642 11.798 23.067 11.8008 22.0379V15.5406C11.7989 14.9655 11.9126 14.3959 12.1352 13.865C12.3578 13.3341 12.6848 12.8526 13.0972 12.4487C13.5063 12.0428 13.9921 11.7212 14.5268 11.5023C15.0615 11.2834 15.6346 11.1715 16.213 11.173C17.3803 11.173 18.4998 11.6332 19.3252 12.4522C20.1506 13.2713 20.6143 14.3822 20.6143 15.5406V22.0379C20.6143 23.2054 20.1567 24.3081 19.3179 25.1406C18.9105 25.5456 18.4265 25.8668 17.8936 26.0857C17.3608 26.3046 16.7897 26.4169 16.213 26.4162C15.9537 26.4173 15.6949 26.3956 15.4395 26.3514ZM28.2948 13.4433C28.1725 13.422 28.0486 13.4112 27.9244 13.4108C27.6417 13.4079 27.3613 13.4611 27.0996 13.5671C26.8379 13.6731 26.6002 13.8298 26.4003 14.0282C26.2004 14.2265 26.0425 14.4624 25.9356 14.7221C25.8288 14.9818 25.7753 15.2601 25.7782 15.5406V22.0379C25.7768 22.3179 25.8313 22.5955 25.9386 22.8546C26.046 23.1136 26.204 23.349 26.4036 23.547C26.6032 23.7451 26.8403 23.9019 27.1014 24.0084C27.3624 24.1149 27.6421 24.169 27.9244 24.1676C28.2066 24.169 28.4864 24.1149 28.7474 24.0084C29.0084 23.9019 29.2456 23.7451 29.4452 23.547C29.6448 23.349 29.8028 23.1136 29.9101 22.8546C30.0175 22.5955 30.072 22.3179 30.0706 22.0379V15.5406C30.0706 14.5027 29.3189 13.6271 28.2948 13.4433ZM27.1509 26.3514C26.1314 26.1708 25.2088 25.6393 24.5453 24.8503C23.8817 24.0613 23.5198 23.0655 23.5231 22.0379V15.5406C23.5248 14.9034 23.6666 14.2743 23.9386 13.6972C24.2107 13.1201 24.6063 12.6088 25.098 12.1991C25.5897 11.7894 26.1656 11.4911 26.7855 11.3251C27.4054 11.1591 28.0543 11.1293 28.687 11.2379C29.7086 11.4136 30.6349 11.9416 31.3025 12.7287C31.9702 13.5159 32.3364 14.5117 32.3366 15.5406V22.0379C32.3379 22.6154 32.223 23.1873 31.9985 23.7201C31.774 24.2529 31.4444 24.7359 31.0293 25.1406C30.6218 25.5456 30.1378 25.8668 29.605 26.0857C29.0722 26.3046 28.5011 26.4169 27.9244 26.4162C27.6629 26.4162 27.4015 26.3946 27.1509 26.3514ZM36.1605 26.3946C35.8989 26.3508 35.6617 26.2155 35.4919 26.0133C35.3221 25.811 35.2308 25.5551 35.2345 25.2919V5.7784C35.2345 5.4757 35.3434 5.18381 35.5613 4.9784C35.6898 4.85251 35.847 4.75926 36.0196 4.70656C36.1922 4.65386 36.3751 4.64327 36.5527 4.6757C37.0974 4.76219 37.5005 5.22705 37.5005 5.7784V17.3243L42.708 11.5298C42.9694 11.2487 43.3616 11.1189 43.7538 11.1838C43.9516 11.2166 44.1368 11.3015 44.2903 11.4294C44.4439 11.5574 44.56 11.7238 44.6268 11.9115C44.6935 12.0991 44.7083 12.301 44.6698 12.4962C44.6312 12.6915 44.5406 12.8729 44.4075 13.0216L40.4746 17.3784L44.5382 24.7622C44.6114 24.8867 44.6587 25.0245 44.6774 25.1675C44.6961 25.3104 44.6858 25.4557 44.6471 25.5946C44.605 25.7378 44.5341 25.8711 44.4386 25.9863C44.3431 26.1015 44.225 26.1963 44.0915 26.2649C43.8609 26.3965 43.5906 26.4425 43.3289 26.3946C43.1662 26.3673 43.0115 26.3047 42.8759 26.2113C42.7403 26.1178 42.6272 25.9959 42.5445 25.8541L38.8841 19.173L37.4896 20.6973V25.2919C37.4896 25.5901 37.3702 25.8761 37.1577 26.0869C36.9453 26.2978 36.6571 26.4162 36.3566 26.4162C36.2803 26.4162 36.2149 26.4162 36.1387 26.3946H36.1605ZM86.0673 26.3838C85.4547 26.282 84.8727 26.0457 84.3638 25.6922C83.8549 25.3387 83.432 24.8769 83.1258 24.3406C82.9762 24.0778 82.937 23.767 83.0169 23.4757C83.1041 23.1946 83.2893 22.9568 83.5398 22.8054C83.7725 22.6793 84.042 22.6373 84.3024 22.6865C84.6293 22.7406 84.9234 22.9352 85.0868 23.227C85.381 23.7243 85.8494 24.0487 86.4268 24.146C86.7245 24.1973 87.03 24.1812 87.3206 24.0988C87.6111 24.0164 87.8791 23.8699 88.1045 23.6703C88.5403 23.2703 88.7582 22.6973 88.7037 22.1352C88.6916 21.847 88.6114 21.5657 88.4694 21.3141C88.3275 21.0624 88.1278 20.8474 87.8867 20.6865L84.8363 18.5352C84.3393 18.1889 83.9254 17.738 83.6241 17.2148C83.3228 16.6916 83.1415 16.1088 83.0932 15.5081C83.0537 14.9021 83.1539 14.295 83.3861 13.7331C83.6183 13.1712 83.9763 12.6691 84.4332 12.2649C84.8788 11.8537 85.4112 11.5463 85.9917 11.3649C86.5721 11.1835 87.1859 11.1327 87.7886 11.2162C89.0741 11.4325 90.12 12.1676 90.7192 13.2054C90.8636 13.4648 90.9011 13.7696 90.8239 14.0558C90.7467 14.342 90.5608 14.5874 90.3052 14.7406C90.0745 14.8722 89.8043 14.9181 89.5426 14.8703C89.3798 14.843 89.2251 14.7804 89.0896 14.687C88.954 14.5935 88.8408 14.4716 88.7582 14.3298C88.6215 14.1004 88.4354 13.9039 88.2131 13.7544C87.9908 13.6048 87.738 13.506 87.4727 13.4649C87.2012 13.4161 86.9221 13.4308 86.6573 13.5077C86.3926 13.5847 86.1495 13.7218 85.9475 13.9081C85.7502 14.0929 85.5962 14.3184 85.4964 14.5687C85.3967 14.8191 85.3535 15.0881 85.3701 15.3568C85.3919 15.8865 85.6969 16.4054 86.1545 16.7081L89.2049 18.8162C89.7227 19.176 90.1508 19.6484 90.4567 20.1973C90.7626 20.7463 90.938 21.3573 90.9697 21.9838C91.0202 22.6074 90.9234 23.234 90.687 23.8139C90.4506 24.3938 90.0811 24.911 89.608 25.3243C89.1477 25.7487 88.598 26.0659 87.9987 26.2529C87.3994 26.4399 86.7657 26.492 86.1436 26.4054L86.0564 26.3838H86.0673ZM94.8154 26.4162C94.5538 26.3706 94.3166 26.2352 94.1453 26.0336C93.9741 25.8321 93.8796 25.5772 93.8785 25.3135V5.80003C93.8771 5.65198 93.9054 5.50512 93.9618 5.36806C94.0182 5.231 94.1016 5.10648 94.2071 5.00179C94.3126 4.8971 94.4381 4.81433 94.5762 4.75834C94.7143 4.70235 94.8623 4.67426 95.0115 4.6757L95.2294 4.68651C95.7741 4.79462 96.1445 5.23786 96.1445 5.80003V11.3135H98.2907C98.8691 11.3121 99.4421 11.4241 99.9767 11.6431C100.511 11.8621 100.997 12.1837 101.406 12.5896C101.815 12.9954 102.139 13.4775 102.36 14.008C102.581 14.5386 102.693 15.1071 102.692 15.6811V25.3027C102.693 25.466 102.658 25.6274 102.589 25.7756C102.52 25.9238 102.419 26.0552 102.293 26.1604C102.167 26.2656 102.02 26.3421 101.861 26.3845C101.702 26.4268 101.536 26.434 101.374 26.4054C100.829 26.3081 100.437 25.8433 100.437 25.2919V15.6703C100.437 15.3911 100.381 15.1147 100.273 14.8569C100.165 14.5991 100.007 14.3651 99.8076 14.1682C99.6082 13.9713 99.3715 13.8154 99.1112 13.7096C98.8509 13.6037 98.572 13.55 98.2907 13.5514H96.1445V25.3027C96.1458 25.4671 96.1103 25.6296 96.0408 25.7788C95.9712 25.9279 95.8693 26.0599 95.7422 26.1653C95.6152 26.2707 95.4662 26.3469 95.3059 26.3884C95.1457 26.4299 94.9782 26.4357 94.8154 26.4054V26.4162ZM110.373 13.4541C110.064 13.3985 109.747 13.4111 109.443 13.491C109.14 13.5709 108.858 13.7161 108.618 13.9163C108.378 14.1166 108.185 14.3669 108.053 14.6495C107.921 14.9321 107.854 15.24 107.856 15.5514V22.0487C107.854 22.3278 107.909 22.6045 108.015 22.8629C108.122 23.1212 108.279 23.3561 108.477 23.554C108.676 23.7519 108.912 23.9089 109.172 24.0161C109.431 24.1232 109.71 24.1784 109.991 24.1784C110.558 24.1784 111.102 23.9622 111.506 23.5622C111.707 23.3645 111.867 23.1288 111.976 22.8688C112.084 22.6089 112.139 22.33 112.137 22.0487V15.5406C112.137 14.5027 111.397 13.6162 110.362 13.4433L110.373 13.4541ZM109.218 26.3406C108.199 26.1623 107.277 25.6329 106.613 24.8458C105.949 24.0586 105.587 23.0642 105.59 22.0379V15.5406C105.59 14.9025 105.731 14.2722 106.002 13.6938C106.273 13.1153 106.669 12.6027 107.161 12.1918C107.653 11.7809 108.229 11.4817 108.85 11.315C109.47 11.1484 110.12 11.1183 110.754 11.2271C111.777 11.4031 112.705 11.9326 113.373 12.7221C114.041 13.5115 114.406 14.5098 114.403 15.5406V22.0379C114.404 22.6136 114.289 23.1837 114.064 23.7147C113.84 24.2456 113.51 24.7267 113.096 25.1298C112.596 25.6277 111.983 25.998 111.307 26.2088C110.632 26.4197 109.915 26.4649 109.218 26.3406Z" fill="#333545"/>
<path fill-rule="evenodd" clip-rule="evenodd" d="M131.802 12.5568C131.839 12.4194 131.848 12.2762 131.83 12.1352C131.811 11.9942 131.764 11.8583 131.693 11.7352C131.61 11.6039 131.502 11.4904 131.375 11.4013C131.248 11.3122 131.104 11.2492 130.952 11.2162C130.671 11.1635 130.38 11.2192 130.139 11.3719C129.899 11.5246 129.725 11.7628 129.655 12.0379C129.655 12.0919 128.435 16.9676 127.477 20.6757L127.455 20.7514L127.433 20.6757L125.254 12.0487C125.212 11.8381 125.106 11.6453 124.95 11.4965C124.794 11.3476 124.596 11.2498 124.383 11.2162C124.318 11.2036 124.252 11.1964 124.187 11.1946C123.685 11.1946 123.25 11.5406 123.108 12.0379C123.097 12.0919 121.877 16.9676 120.929 20.6757L120.907 20.7514L120.886 20.6757C119.96 16.9676 118.707 12.0919 118.707 12.0379C118.655 11.8309 118.545 11.6432 118.388 11.4974C118.231 11.3516 118.036 11.2539 117.824 11.2162C117.643 11.1844 117.456 11.1978 117.282 11.2553C117.107 11.3127 116.949 11.4124 116.823 11.5453C116.696 11.6783 116.605 11.8403 116.557 12.0169C116.51 12.1934 116.507 12.3789 116.55 12.5568L119.829 25.5622C119.891 25.8005 120.03 26.0121 120.225 26.1644C120.42 26.3167 120.659 26.4014 120.907 26.4054C121.441 26.4054 121.866 26.0595 121.975 25.5622L124.154 16.9243L124.187 16.8487L124.208 16.9243C125.167 20.6757 126.387 25.573 126.387 25.573C126.452 25.8067 126.591 26.0136 126.783 26.1634C126.975 26.3132 127.211 26.398 127.455 26.4054C127.706 26.4132 127.952 26.3329 128.149 26.1787C128.346 26.0244 128.482 25.8062 128.533 25.5622L131.802 12.5568Z" fill="#333545"/>
</svg>
