<svg width="68" height="20" viewBox="0 0 68 20" fill="none" xmlns="http://www.w3.org/2000/svg">
<path d="M3.40001 11.92V1.00002H0.200012V15H8.40001V11.92H3.40001Z" fill="#0B0D17"/>
<path d="M16.8717 5.00002V5.94002C16.2117 5.18002 15.2317 4.72002 13.8917 4.72002C11.2717 4.72002 9.11173 7.02002 9.11173 10C9.11173 12.98 11.2717 15.28 13.8917 15.28C15.2317 15.28 16.2117 14.82 16.8717 14.06V15H19.8717V5.00002H16.8717ZM14.4917 12.44C13.1117 12.44 12.1117 11.5 12.1117 10C12.1117 8.50002 13.1117 7.56002 14.4917 7.56002C15.8717 7.56002 16.8717 8.50002 16.8717 10C16.8717 11.5 15.8717 12.44 14.4917 12.44Z" fill="#0B0D17"/>
<path d="M27.9327 4.72002C26.6127 4.72002 25.6127 5.20002 25.0727 5.94002V5.00002H22.0727V15H25.0727V9.54002C25.0727 8.12002 25.8327 7.48002 26.9327 7.48002C27.8927 7.48002 28.6727 8.06002 28.6727 9.30002V15H31.6727V8.86002C31.6727 6.16002 29.9527 4.72002 27.9327 4.72002Z" fill="#0B0D17"/>
<path d="M40.9928 1.00002V5.94002C40.3328 5.18002 39.3528 4.72002 38.0128 4.72002C35.3928 4.72002 33.2328 7.02002 33.2328 10C33.2328 12.98 35.3928 15.28 38.0128 15.28C39.3528 15.28 40.3328 14.82 40.9928 14.06V15H43.9928V1.00002H40.9928ZM38.6128 12.44C37.2328 12.44 36.2328 11.5 36.2328 10C36.2328 8.50002 37.2328 7.56002 38.6128 7.56002C39.9928 7.56002 40.9928 8.50002 40.9928 10C40.9928 11.5 39.9928 12.44 38.6128 12.44Z" fill="#0B0D17"/>
<path d="M47.6938 4.12002C48.6738 4.12002 49.4938 3.30002 49.4938 2.32002C49.4938 1.34002 48.6738 0.52002 47.6938 0.52002C46.7138 0.52002 45.8938 1.34002 45.8938 2.32002C45.8938 3.30002 46.7138 4.12002 47.6938 4.12002ZM46.1938 15H49.1938V5.00002H46.1938V15Z" fill="#0B0D17"/>
<path d="M56.8891 3.60002V0.720019C53.5691 0.52002 52.0291 2.20002 52.0291 5.00002H50.6891V7.88002H52.0291V15H55.0291V7.88002H56.8891V5.00002H55.0291C55.0291 3.84002 55.7691 3.50002 56.8891 3.60002Z" fill="#0B0D17"/>
<path d="M64.6813 5.00002L62.8013 11.12L60.5813 5.00002H57.2813L61.2613 14.54C60.8213 15.76 60.1613 16.2 58.7613 16.2V19C61.5613 19.14 63.3413 17.88 64.4613 14.7L67.8813 5.00002H64.6813Z" fill="#0B0D17"/>
</svg>
