<svg width="282" height="40" viewBox="0 0 282 40" fill="none" xmlns="http://www.w3.org/2000/svg">
<g id="Right Nav">
<g id="Download Badge / Google Play Badge">
<g id="Layer 2">
<g id="artwork">
<path id="Vector" d="M130 0H5C2.23858 0 0 2.23858 0 5V35C0 37.7614 2.23858 40 5 40H130C132.761 40 135 37.7614 135 35V5C135 2.23858 132.761 0 130 0Z" fill="black"/>
<path id="Vector_2" d="M130 0.800044C131.114 0.801331 132.181 1.24427 132.968 2.03169C133.756 2.81911 134.199 3.8867 134.2 5.00024V35.0002C134.199 36.1138 133.756 37.1814 132.968 37.9688C132.181 38.7562 131.114 39.1991 130 39.2004H5C3.88645 39.1992 2.81888 38.7562 2.0315 37.9688C1.24412 37.1814 0.801231 36.1138 0.8 35.0002V5.00024C0.801212 3.88669 1.24409 2.81909 2.03148 2.03166C2.81886 1.24424 3.88644 0.801309 5 0.800044H130ZM130 0.000244141H5C3.67511 0.00412224 2.40559 0.532152 1.46875 1.46899C0.531908 2.40584 0.0038781 3.67535 0 5.00024L0 35.0002C0.0038781 36.3251 0.531908 37.5947 1.46875 38.5315C2.40559 39.4683 3.67511 39.9964 5 40.0002H130C131.325 39.9964 132.594 39.4683 133.531 38.5315C134.468 37.5947 134.996 36.3251 135 35.0002V5.00024C134.996 3.67535 134.468 2.40584 133.531 1.46899C132.594 0.532152 131.325 0.00412224 130 0.000244141V0.000244141Z" fill="#A6A6A6"/>
<path id="Vector_3" d="M47.4184 10.2433C47.4366 10.6103 47.3799 10.9771 47.2518 11.3214C47.1237 11.6658 46.9268 11.9804 46.6732 12.2462C46.389 12.541 46.0457 12.7724 45.6659 12.9254C45.2861 13.0784 44.8783 13.1494 44.4691 13.1339C44.0573 13.1376 43.649 13.059 43.268 12.9026C42.8871 12.7462 42.5412 12.5152 42.2508 12.2233C41.9604 11.9313 41.7313 11.5842 41.5769 11.2024C41.4226 10.8207 41.3461 10.4119 41.352 10.0001C41.3462 9.58837 41.4227 9.17959 41.577 8.79781C41.7314 8.41603 41.9605 8.06895 42.2509 7.77695C42.5413 7.48496 42.8871 7.25395 43.268 7.09748C43.649 6.94102 44.0573 6.86226 44.4691 6.86584C44.8925 6.86456 45.3116 6.95016 45.7006 7.11734C46.0619 7.26378 46.3834 7.49348 46.6391 7.78774L46.1117 8.31554C45.9107 8.07899 45.6581 7.89178 45.3733 7.76834C45.0885 7.64491 44.7791 7.58856 44.4691 7.60364C44.157 7.60202 43.8478 7.66341 43.56 7.78412C43.2722 7.90483 43.0118 8.08239 42.7942 8.30615C42.5767 8.52991 42.4065 8.79527 42.2939 9.08635C42.1814 9.37743 42.1287 9.68823 42.1391 10.0001C42.1317 10.4673 42.2631 10.9262 42.5168 11.3186C42.7705 11.711 43.135 12.0192 43.5641 12.2041C43.9932 12.3891 44.4676 12.4425 44.927 12.3575C45.3865 12.2725 45.8104 12.0529 46.1449 11.7267C46.4528 11.395 46.6313 10.9637 46.6478 10.5113H44.4691V9.79064H47.3764C47.4039 9.93998 47.4179 10.0915 47.4184 10.2433V10.2433Z" fill="white" stroke="white" stroke-width="0.2" stroke-miterlimit="10"/>
<path id="Vector_4" d="M52.0277 7.73742H49.2953V9.63972H51.7592V10.3605H49.2953V12.2628H52.0277V13.0001H48.5248V7.00012H52.0277V7.73742Z" fill="white" stroke="white" stroke-width="0.2" stroke-miterlimit="10"/>
<path id="Vector_5" d="M55.2787 13.0001H54.5072V7.73742H52.8314V7.00012H56.9545V7.73742H55.2787V13.0001Z" fill="white" stroke="white" stroke-width="0.2" stroke-miterlimit="10"/>
<path id="Vector_6" d="M59.9379 13.0001V7.00012H60.7084V13.0001H59.9379Z" fill="white" stroke="white" stroke-width="0.2" stroke-miterlimit="10"/>
<path id="Vector_7" d="M64.1283 13.0001H63.3568V7.73742H61.6811V7.00012H65.8041V7.73742H64.1283V13.0001Z" fill="white" stroke="white" stroke-width="0.2" stroke-miterlimit="10"/>
<path id="Vector_8" d="M73.6093 12.2247C73.0253 12.807 72.2343 13.1339 71.4096 13.1339C70.5849 13.1339 69.7939 12.807 69.2099 12.2247C68.921 11.9321 68.6939 11.5844 68.542 11.2022C68.3902 10.8201 68.3168 10.4113 68.3261 10.0001C68.3168 9.58903 68.3902 9.18024 68.542 8.79807C68.6939 8.41591 68.921 8.06817 69.2099 7.77554C69.4986 7.48681 69.8413 7.25784 70.2186 7.10174C70.5958 6.94565 71.0002 6.86548 71.4085 6.86585C71.8167 6.86621 72.2209 6.94709 72.5979 7.10386C72.9749 7.26062 73.3173 7.4902 73.6054 7.77944C73.8945 8.0713 74.1221 8.41826 74.2746 8.79973C74.4271 9.1812 74.5014 9.58941 74.4931 10.0001C74.5022 10.4112 74.4286 10.8199 74.2768 11.2021C74.125 11.5842 73.898 11.932 73.6093 12.2247V12.2247ZM69.7792 11.7223C70.2117 12.1541 70.7979 12.3967 71.4091 12.3967C72.0203 12.3967 72.6065 12.1541 73.039 11.7223C73.2608 11.4953 73.4343 11.2256 73.5489 10.9296C73.6635 10.6336 73.717 10.3174 73.706 10.0001C73.717 9.6829 73.6635 9.36673 73.5489 9.07072C73.4343 8.77472 73.2608 8.50503 73.039 8.27794C72.6065 7.84615 72.0203 7.60363 71.4091 7.60363C70.7979 7.60363 70.2117 7.84615 69.7792 8.27794C69.5577 8.50521 69.3845 8.77495 69.2701 9.07093C69.1556 9.36691 69.1022 9.68299 69.1132 10.0001C69.1022 10.3173 69.1556 10.6334 69.2701 10.9294C69.3845 11.2253 69.5577 11.4951 69.7792 11.7223V11.7223Z" fill="white" stroke="white" stroke-width="0.2" stroke-miterlimit="10"/>
<path id="Vector_9" d="M75.5751 13.0001V7.00012H76.5136L79.4296 11.6676H79.4628L79.4296 10.5113V7.00012H80.2011V13.0001H79.3964L76.3456 8.10652H76.3124L76.3456 9.26282V13.0001H75.5751Z" fill="white" stroke="white" stroke-width="0.2" stroke-miterlimit="10"/>
<path id="Vector_10" d="M68.1358 21.7517C67.2953 21.7549 66.4746 22.007 65.7773 22.4763C65.08 22.9456 64.5373 23.611 64.2179 24.3884C63.8984 25.1659 63.8165 26.0205 63.9824 26.8445C64.1484 27.6685 64.5547 28.4248 65.1502 29.018C65.7457 29.6112 66.5035 30.0147 67.3281 30.1775C68.1527 30.3403 69.0071 30.2551 69.7833 29.9327C70.5595 29.6103 71.2228 29.0652 71.6895 28.3661C72.1561 27.667 72.4051 26.8453 72.4051 26.0048C72.4134 25.4426 72.3085 24.8845 72.0966 24.3637C71.8848 23.8429 71.5704 23.37 71.172 22.9732C70.7737 22.5764 70.2997 22.2638 69.778 22.0539C69.2564 21.8441 68.6979 21.7413 68.1358 21.7517V21.7517ZM68.1358 28.5825C67.6182 28.6194 67.1014 28.4996 66.6528 28.2387C66.2042 27.9778 65.8446 27.5879 65.6207 27.1198C65.3968 26.6516 65.3191 26.1269 65.3976 25.6139C65.4761 25.101 65.7072 24.6235 66.0608 24.2438C66.4145 23.864 66.8743 23.5995 67.3804 23.4847C67.8864 23.3699 68.4154 23.4101 68.8983 23.6001C69.3812 23.7902 69.7957 24.1212 70.0878 24.5501C70.3799 24.979 70.5362 25.4859 70.5362 26.0048C70.5519 26.3326 70.5019 26.6603 70.389 26.9685C70.2762 27.2767 70.1028 27.5593 69.8792 27.7994C69.6555 28.0396 69.386 28.2327 69.0866 28.3671C68.7872 28.5016 68.4639 28.5749 68.1358 28.5825V28.5825ZM58.8224 21.7517C57.9819 21.7549 57.1612 22.007 56.4638 22.4763C55.7665 22.9455 55.2239 23.6109 54.9044 24.3884C54.585 25.1658 54.503 26.0205 54.6689 26.8444C54.8349 27.6684 55.2412 28.4248 55.8367 29.018C56.4321 29.6112 57.19 30.0147 58.0146 30.1775C58.8392 30.3403 59.6935 30.2551 60.4698 29.9327C61.246 29.6103 61.9093 29.0652 62.3759 28.3661C62.8426 27.667 63.0916 26.8453 63.0916 26.0048C63.0999 25.4426 62.995 24.8845 62.7831 24.3637C62.5713 23.8429 62.2569 23.3701 61.8586 22.9733C61.4603 22.5765 60.9862 22.2638 60.4646 22.054C59.943 21.8441 59.3845 21.7413 58.8224 21.7517V21.7517ZM58.8224 28.5825C58.3048 28.6194 57.788 28.4996 57.3394 28.2387C56.8908 27.9778 56.5312 27.5879 56.3073 27.1198C56.0834 26.6516 56.0057 26.1269 56.0842 25.6139C56.1627 25.101 56.3938 24.6235 56.7474 24.2438C57.1011 23.864 57.5609 23.5995 58.067 23.4847C58.573 23.3699 59.102 23.4101 59.5849 23.6001C60.0678 23.7902 60.4823 24.1212 60.7744 24.5501C61.0665 24.979 61.2228 25.4859 61.2228 26.0048C61.2385 26.3326 61.1885 26.6603 61.0756 26.9685C60.9628 27.2767 60.7895 27.5593 60.5658 27.7995C60.3421 28.0397 60.0726 28.2327 59.7732 28.3672C59.4738 28.5016 59.1505 28.5749 58.8224 28.5825ZM47.7436 23.0567V24.861H52.0613C51.999 25.7073 51.6527 26.5078 51.0785 27.1326C50.6458 27.5736 50.1255 27.9191 49.5511 28.1466C48.9767 28.3741 48.3609 28.4787 47.7436 28.4536C46.4816 28.4365 45.277 27.9232 44.3906 27.0247C43.5042 26.1262 43.0073 24.9148 43.0073 23.6527C43.0073 22.3906 43.5042 21.1792 44.3906 20.2807C45.277 19.3822 46.4816 18.8689 47.7436 18.8518C48.9558 18.836 50.1253 19.2991 50.998 20.1406L52.2707 18.8679C51.6753 18.2784 50.9681 17.8137 50.1907 17.5011C49.4134 17.1885 48.5814 17.0343 47.7436 17.0474C46.8681 17.0347 45.9988 17.1961 45.1862 17.5223C44.3737 17.8485 43.634 18.3331 43.0104 18.9477C42.3868 19.5623 41.8915 20.2948 41.5535 21.1025C41.2155 21.9102 41.0414 22.7771 41.0414 23.6527C41.0414 24.5283 41.2155 25.3952 41.5535 26.2029C41.8915 27.0106 42.3868 27.7431 43.0104 28.3577C43.634 28.9724 44.3737 29.4569 45.1862 29.7831C45.9988 30.1093 46.8681 30.2708 47.7436 30.258C48.5991 30.2935 49.4523 30.1466 50.2467 29.8272C51.041 29.5078 51.7584 29.0231 52.3512 28.4053C53.4036 27.2566 53.9646 25.7415 53.914 24.1844C53.9181 23.8063 53.8857 23.4286 53.8172 23.0567H47.7436ZM93.0519 24.4582C92.7963 23.6878 92.3097 23.0148 91.6583 22.5306C91.0069 22.0464 90.2222 21.7744 89.4109 21.7517C88.8644 21.7551 88.3243 21.8693 87.8232 22.0873C87.3222 22.3053 86.8705 22.6227 86.4955 23.0203C86.1206 23.4178 85.8301 23.8873 85.6417 24.4002C85.4534 24.9132 85.3709 25.4591 85.3995 26.0048C85.3872 26.564 85.4877 27.1199 85.6951 27.6394C85.9024 28.1588 86.2123 28.6312 86.6063 29.0282C87.0003 29.4252 87.4703 29.7387 87.9881 29.95C88.506 30.1613 89.0611 30.2661 89.6204 30.258C90.321 30.2619 91.0117 30.0917 91.6303 29.7627C92.2489 29.4337 92.7761 28.9562 93.1646 28.3731L91.7147 27.4065C91.4975 27.7672 91.1902 28.0653 90.8231 28.2715C90.4559 28.4776 90.0415 28.5848 89.6204 28.5825C89.1871 28.5991 88.7588 28.4851 88.3911 28.2553C88.0234 28.0254 87.7332 27.6904 87.5582 27.2937L93.2453 24.9416L93.0519 24.4582ZM87.2522 25.876C87.2322 25.5664 87.2741 25.256 87.3755 24.9628C87.4769 24.6697 87.6357 24.3997 87.8427 24.1687C88.0498 23.9376 88.3008 23.7502 88.5811 23.6174C88.8614 23.4845 89.1654 23.4089 89.4753 23.395C89.798 23.3738 90.1198 23.448 90.4006 23.6084C90.6813 23.7689 90.9087 24.0084 91.0542 24.2972L87.2522 25.876ZM82.6284 30.0002H84.4972V17.4986H82.6284V30.0002ZM79.5674 22.7022H79.503C79.2189 22.3935 78.8721 22.149 78.4859 21.9851C78.0998 21.8212 77.683 21.7416 77.2636 21.7517C76.1669 21.7984 75.1306 22.2669 74.3711 23.0594C73.6116 23.8519 73.1876 24.9072 73.1876 26.0049C73.1876 27.1025 73.6116 28.1578 74.3711 28.9503C75.1306 29.7428 76.1669 30.2113 77.2636 30.258C77.6847 30.2692 78.1031 30.1885 78.4899 30.0216C78.8766 29.8547 79.2223 29.6055 79.503 29.2914H79.5674V29.9036C79.5674 31.5308 78.6975 32.4007 77.2958 32.4007C76.8287 32.3895 76.3754 32.2395 75.9939 31.9698C75.6123 31.7001 75.3196 31.3229 75.1532 30.8863L73.526 31.563C73.8327 32.3097 74.3553 32.9478 75.027 33.3955C75.6986 33.8433 76.4886 34.0803 77.2958 34.0762C79.4869 34.0762 81.3396 32.7874 81.3396 29.6458V22.0094H79.5674V22.7022ZM77.4248 28.5825C76.7789 28.5277 76.177 28.2324 75.7384 27.7551C75.2998 27.2777 75.0565 26.6531 75.0565 26.0049C75.0565 25.3566 75.2998 24.732 75.7384 24.2546C76.177 23.7773 76.7789 23.482 77.4248 23.4272C77.7462 23.4429 78.0611 23.5231 78.3508 23.6631C78.6404 23.8031 78.899 24 79.1109 24.242C79.3229 24.4841 79.484 24.7663 79.5846 25.0719C79.6851 25.3776 79.7231 25.7003 79.6963 26.0209C79.7214 26.3395 79.682 26.66 79.5805 26.963C79.4789 27.2661 79.3173 27.5455 79.1052 27.7847C78.8931 28.0238 78.635 28.2177 78.3463 28.3548C78.0576 28.4919 77.7441 28.5693 77.4248 28.5825V28.5825ZM101.806 17.4988H97.3346V30.0002H99.2003V25.2638H101.806C102.334 25.2927 102.862 25.2138 103.358 25.0317C103.854 24.8497 104.308 24.5684 104.692 24.205C105.076 23.8417 105.381 23.4038 105.59 22.9184C105.799 22.4329 105.907 21.9099 105.907 21.3813C105.907 20.8528 105.799 20.3298 105.59 19.8443C105.381 19.3588 105.076 18.921 104.692 18.5576C104.308 18.1942 103.854 17.9129 103.358 17.7309C102.862 17.5488 102.334 17.4699 101.806 17.4988V17.4988ZM101.854 23.524H99.2003V19.2387H101.854C102.139 19.2328 102.423 19.2839 102.688 19.3889C102.953 19.4939 103.194 19.6508 103.398 19.8503C103.602 20.0499 103.764 20.2881 103.874 20.551C103.985 20.8139 104.042 21.0962 104.042 21.3814C104.042 21.6665 103.985 21.9488 103.874 22.2117C103.764 22.4746 103.602 22.7128 103.398 22.9124C103.194 23.1119 102.953 23.2688 102.688 23.3738C102.423 23.4789 102.139 23.5299 101.854 23.524V23.524ZM113.386 21.7287C112.705 21.6889 112.027 21.8489 111.435 22.1889C110.844 22.5288 110.365 23.0341 110.056 23.6426L111.713 24.3342C111.877 24.0322 112.126 23.7846 112.429 23.6218C112.732 23.4589 113.075 23.3879 113.418 23.4174C113.891 23.3712 114.363 23.5145 114.731 23.816C115.099 24.1175 115.332 24.5525 115.38 25.0257V25.1544C114.781 24.8361 114.112 24.6704 113.434 24.6719C111.649 24.6719 109.831 25.653 109.831 27.4865C109.849 27.8729 109.943 28.2519 110.11 28.601C110.277 28.9501 110.512 29.2621 110.801 29.5186C111.091 29.7751 111.429 29.9709 111.795 30.0942C112.162 30.2176 112.55 30.266 112.935 30.2367C113.405 30.2644 113.874 30.1656 114.292 29.9506C114.711 29.7356 115.064 29.4123 115.316 29.0144H115.38V29.9794H117.181V25.1866C117.181 22.9671 115.525 21.7287 113.386 21.7287V21.7287ZM113.16 28.5801C112.549 28.5801 111.697 28.2746 111.697 27.5186C111.697 26.5537 112.758 26.1837 113.675 26.1837C114.271 26.1678 114.859 26.3123 115.38 26.6019C115.311 27.1441 115.049 27.6432 114.641 28.0069C114.233 28.3705 113.707 28.5742 113.16 28.5801V28.5801ZM123.743 22.0021L121.604 27.4221H121.54L119.32 22.0021H117.31L120.639 29.5773L118.741 33.7911H120.687L125.818 22.0021H123.743ZM106.936 30.0002H108.802V17.4988H106.936V30.0002Z" fill="white"/>
<path id="Vector_11" d="M10.4353 7.53805C10.1074 7.93013 9.94181 8.43275 9.9725 8.94295V31.0591C9.94172 31.5693 10.1073 32.0719 10.4353 32.464L10.5093 32.5361L22.8983 20.1472V19.8549L10.5093 7.46545L10.4353 7.53805Z" fill="url(#paint0_linear)"/>
<path id="Vector_12" d="M27.0277 24.2786L22.8983 20.1472V19.8549L27.0287 15.7245L27.1218 15.7776L32.0146 18.5577C33.4122 19.3517 33.4122 20.6509 32.0146 21.4454L27.1218 24.2255L27.0277 24.2786Z" fill="url(#paint1_linear)"/>
<path id="Vector_13" d="M27.1218 24.225L22.8983 20.0011L10.4353 32.464C10.7201 32.7152 11.0837 32.8588 11.4633 32.87C11.8428 32.8812 12.2143 32.7593 12.5134 32.5254L27.1218 24.225Z" fill="url(#paint2_linear)"/>
<path id="Vector_14" d="M27.1218 15.7771L12.5134 7.47666C12.2143 7.24275 11.8428 7.12084 11.4633 7.13206C11.0837 7.14327 10.7201 7.2869 10.4353 7.53806L22.8983 20.0011L27.1218 15.7771Z" fill="url(#paint3_linear)"/>
<path id="Vector_15" opacity="0.2" d="M27.0287 24.132L12.5134 32.3793C12.2258 32.5982 11.8748 32.7176 11.5134 32.7196C11.152 32.7215 10.7997 32.6058 10.5098 32.39L10.4353 32.4645L10.5093 32.5366L10.5098 32.5361C10.7997 32.752 11.1519 32.8678 11.5134 32.8659C11.8749 32.8639 12.2259 32.7444 12.5134 32.5254L27.1218 24.225L27.0287 24.132Z" fill="black"/>
<path id="Vector_16" opacity="0.12" d="M10.4353 32.3184C10.1074 31.9263 9.94185 31.4237 9.9725 30.9135V31.0596C9.94183 31.5698 10.1074 32.0724 10.4353 32.4645L10.5098 32.39L10.4353 32.3184Z" fill="black"/>
<path id="Vector_17" opacity="0.12" d="M32.0146 21.2988L27.0287 24.132L27.1218 24.225L32.0146 21.4449C32.3024 21.32 32.5515 21.1202 32.7358 20.8663C32.9202 20.6125 33.0332 20.3138 33.0629 20.0015C33.001 20.2843 32.8741 20.5488 32.6921 20.774C32.5101 20.9992 32.2782 21.1789 32.0146 21.2988V21.2988Z" fill="black"/>
<path id="Vector_18" opacity="0.25" d="M12.5134 7.62334L32.0146 18.7033C32.2783 18.8232 32.5103 19.0029 32.6923 19.2282C32.8743 19.4535 33.0012 19.7182 33.0629 20.0011C33.0334 19.6887 32.9205 19.3899 32.7361 19.1359C32.5517 18.8819 32.3026 18.6821 32.0146 18.5572L12.5134 7.47724C11.1158 6.68314 9.9725 7.34274 9.9725 8.94354V9.08964C9.9725 7.48894 11.1158 6.82934 12.5134 7.62334Z" fill="white"/>
</g>
</g>
</g>
<g id="Download Badge / App Store Badge" clip-path="url(#clip0)">
<g id="Group">
<g id="Group_2">
<path id="Vector_19" d="M271.249 7.92969e-06H157.757C157.343 7.92969e-06 156.934 7.92975e-06 156.522 0.00200793C156.176 0.00400793 155.834 0.00981793 155.485 0.0147079C154.727 0.0226097 153.972 0.0816842 153.224 0.191418C152.478 0.303541 151.755 0.514924 151.08 0.818418C150.405 1.12448 149.789 1.52218 149.254 1.99708C148.715 2.47064 148.266 3.01802 147.924 3.61817C147.581 4.21712 147.344 4.85895 147.219 5.52149C147.094 6.18319 147.026 6.85253 147.017 7.52349C147.007 7.83009 147.006 8.13771 147 8.44435V31.5586C147.006 31.8691 147.007 32.1699 147.017 32.4805C147.026 33.1514 147.094 33.8207 147.219 34.4824C147.343 35.1453 147.581 35.7875 147.924 36.3867C148.266 36.9849 148.715 37.5301 149.254 38.001C149.787 38.478 150.404 38.876 151.08 39.1797C151.755 39.484 152.478 39.6967 153.224 39.8105C153.972 39.9194 154.727 39.9785 155.485 39.9873C155.834 39.9941 156.176 39.998 156.522 39.998C156.934 40 157.343 40 157.757 40H271.249C271.655 40 272.067 40 272.472 39.998C272.816 39.998 273.169 39.9941 273.512 39.9873C274.268 39.9789 275.023 39.9198 275.769 39.8105C276.518 39.6959 277.243 39.4833 277.921 39.1797C278.597 38.8758 279.213 38.4779 279.746 38.001C280.283 37.5282 280.733 36.9835 281.079 36.3867C281.42 35.7871 281.655 35.145 281.777 34.4824C281.903 33.8206 281.973 33.1515 281.987 32.4805C281.991 32.1699 281.991 31.8691 281.991 31.5586C282 31.1953 282 30.834 282 30.4648V9.53614C282 9.16993 282 8.80665 281.991 8.44435C281.991 8.13771 281.991 7.83009 281.987 7.52345C281.973 6.85243 281.903 6.18324 281.777 5.52145C281.655 4.85929 281.419 4.21751 281.079 3.61813C280.383 2.4152 279.278 1.43603 277.921 0.818328C277.243 0.515575 276.518 0.304248 275.769 0.191328C275.023 0.0811107 274.269 0.0220157 273.512 0.0145679C273.169 0.00968793 272.816 0.00382793 272.472 0.00187793C272.067 -0.00012207 271.655 -0.00012207 271.249 -0.00012207V7.92969e-06Z" fill="#A6A6A6"/>
<path id="Vector_20" d="M156.43 39.128C156.086 39.128 155.75 39.1241 155.408 39.1173C154.7 39.1091 153.994 39.0546 153.296 38.9542C152.644 38.8549 152.013 38.6702 151.423 38.4061C150.839 38.1443 150.306 37.801 149.845 37.3893C149.377 36.9825 148.987 36.5107 148.691 35.9925C148.392 35.471 148.185 34.912 148.078 34.335C147.961 33.715 147.899 33.088 147.89 32.4596C147.882 32.2487 147.873 31.5463 147.873 31.5463V8.44092C147.873 8.44092 147.883 7.74936 147.89 7.54619C147.898 6.91874 147.961 6.29278 148.077 5.67373C148.185 5.09513 148.392 4.53451 148.691 4.01128C148.986 3.49349 149.373 3.02131 149.838 2.61304C150.303 2.20089 150.837 1.85581 151.423 1.59036C152.011 1.32718 152.641 1.14378 153.291 1.0463C153.992 0.944847 154.701 0.889995 155.411 0.882208L156.431 0.869995H272.57L273.602 0.882698C274.306 0.890099 275.008 0.944461 275.702 1.04532C276.359 1.14403 276.995 1.32871 277.59 1.59329C278.763 2.12824 279.718 2.9746 280.32 4.01372C280.614 4.53334 280.818 5.08938 280.924 5.66299C281.042 6.28712 281.107 6.918 281.121 7.55059C281.124 7.83385 281.124 8.13811 281.124 8.44092C281.133 8.816 281.133 9.173 281.133 9.53294V30.466C281.133 30.8294 281.133 31.1839 281.124 31.5414C281.124 31.8667 281.124 32.1646 281.12 32.4713C281.106 33.0926 281.042 33.7122 280.927 34.3252C280.821 34.9064 280.615 35.4697 280.316 35.9955C280.018 36.5081 279.631 36.9758 279.169 37.3815C278.707 37.7954 278.173 38.1407 277.587 38.4042C276.994 38.6703 276.358 38.8557 275.702 38.9542C275.004 39.0551 274.297 39.1097 273.59 39.1173C273.259 39.1241 272.912 39.128 272.576 39.128L271.35 39.13L156.43 39.128Z" fill="black"/>
</g>
<g id="&#60;Group&#62;">
<g id="&#60;Group&#62;_2">
<g id="&#60;Group&#62;_3">
<path id="&#60;Path&#62;" d="M179.797 20.3006C179.808 19.4659 180.03 18.6475 180.442 17.9216C180.854 17.1956 181.443 16.5857 182.154 16.1485C181.702 15.5034 181.106 14.9724 180.413 14.5979C179.721 14.2233 178.95 14.0155 178.163 13.9908C176.483 13.8146 174.856 14.9957 174 14.9957C173.128 14.9957 171.81 14.0083 170.391 14.0375C169.474 14.0672 168.579 14.334 167.795 14.8121C167.012 15.2901 166.365 15.9631 165.918 16.7654C163.984 20.1138 165.427 25.0349 167.28 27.7415C168.206 29.0668 169.29 30.5473 170.707 30.4948C172.094 30.4372 172.612 29.6103 174.287 29.6103C175.945 29.6103 176.431 30.4948 177.878 30.4614C179.366 30.4372 180.304 29.1302 181.198 27.7923C181.864 26.8479 182.377 25.8042 182.717 24.6997C181.852 24.334 181.114 23.7218 180.595 22.9395C180.076 22.1572 179.798 21.2394 179.797 20.3006V20.3006Z" fill="white"/>
<path id="&#60;Path&#62;_2" d="M177.066 12.2108C177.877 11.2366 178.277 9.98445 178.18 8.72021C176.94 8.85044 175.795 9.44299 174.973 10.3798C174.57 10.8375 174.262 11.3699 174.066 11.9467C173.87 12.5235 173.789 13.1333 173.829 13.7412C174.449 13.7476 175.063 13.6132 175.623 13.3481C176.184 13.083 176.677 12.6942 177.066 12.2108Z" fill="white"/>
</g>
</g>
<g id="Group_3">
<path id="Vector_21" d="M197.331 27.1397H192.597L191.461 30.4961H189.456L193.939 18.0781H196.022L200.506 30.4961H198.466L197.331 27.1397ZM193.088 25.5908H196.84L194.99 20.1436H194.938L193.088 25.5908Z" fill="white"/>
<path id="Vector_22" d="M210.188 25.9698C210.188 28.7833 208.682 30.5909 206.41 30.5909C205.834 30.621 205.262 30.4884 204.758 30.2083C204.254 29.9281 203.839 29.5118 203.561 29.0069H203.518V33.4913H201.66V21.4425H203.459V22.9483H203.493C203.784 22.4459 204.205 22.0317 204.713 21.7498C205.221 21.468 205.795 21.329 206.376 21.3477C208.673 21.3477 210.188 23.1641 210.188 25.9698ZM208.278 25.9698C208.278 24.1368 207.331 22.9317 205.885 22.9317C204.465 22.9317 203.51 24.1622 203.51 25.9698C203.51 27.794 204.465 29.0157 205.885 29.0157C207.331 29.0157 208.278 27.8194 208.278 25.9698Z" fill="white"/>
<path id="Vector_23" d="M220.153 25.9698C220.153 28.7833 218.647 30.5909 216.375 30.5909C215.799 30.621 215.226 30.4884 214.723 30.2083C214.219 29.9281 213.804 29.5118 213.526 29.0069H213.483V33.4913H211.625V21.4425H213.423V22.9483H213.458C213.749 22.4459 214.17 22.0317 214.678 21.7498C215.186 21.468 215.76 21.329 216.34 21.3477C218.638 21.3477 220.153 23.1641 220.153 25.9698ZM218.243 25.9698C218.243 24.1368 217.296 22.9317 215.85 22.9317C214.43 22.9317 213.475 24.1622 213.475 25.9698C213.475 27.794 214.43 29.0157 215.85 29.0157C217.296 29.0157 218.243 27.8194 218.243 25.9698H218.243Z" fill="white"/>
<path id="Vector_24" d="M226.739 27.0362C226.877 28.2676 228.073 29.0762 229.708 29.0762C231.274 29.0762 232.401 28.2676 232.401 27.1572C232.401 26.1934 231.721 25.6162 230.112 25.2207L228.503 24.833C226.222 24.2822 225.164 23.2158 225.164 21.4854C225.164 19.3428 227.031 17.8711 229.682 17.8711C232.306 17.8711 234.105 19.3428 234.166 21.4854H232.29C232.177 20.2461 231.153 19.4981 229.656 19.4981C228.159 19.4981 227.134 20.2549 227.134 21.3565C227.134 22.2344 227.789 22.751 229.389 23.1465L230.757 23.4824C233.305 24.0849 234.364 25.1084 234.364 26.9248C234.364 29.248 232.513 30.7031 229.57 30.7031C226.816 30.7031 224.957 29.2822 224.837 27.0361L226.739 27.0362Z" fill="white"/>
<path id="Vector_25" d="M238.375 19.2998V21.4424H240.096V22.9141H238.375V27.9053C238.375 28.6807 238.719 29.042 239.476 29.042C239.681 29.0384 239.885 29.0241 240.088 28.999V30.4619C239.747 30.5255 239.401 30.5543 239.055 30.5478C237.222 30.5478 236.507 29.8593 236.507 28.1035V22.9141H235.191V21.4424H236.507V19.2998H238.375Z" fill="white"/>
<path id="Vector_26" d="M241.093 25.9697C241.093 23.1211 242.771 21.3311 245.387 21.3311C248.012 21.3311 249.682 23.1211 249.682 25.9697C249.682 28.8262 248.021 30.6084 245.387 30.6084C242.755 30.6084 241.093 28.8262 241.093 25.9697ZM247.789 25.9697C247.789 24.0156 246.893 22.8623 245.387 22.8623C243.882 22.8623 242.987 24.0244 242.987 25.9697C242.987 27.9316 243.882 29.0762 245.387 29.0762C246.893 29.0762 247.789 27.9316 247.789 25.9697H247.789Z" fill="white"/>
<path id="Vector_27" d="M251.214 21.4424H252.987V22.9834H253.03C253.15 22.5021 253.432 22.0768 253.828 21.7789C254.225 21.481 254.712 21.3287 255.208 21.3476C255.422 21.3469 255.635 21.3702 255.844 21.417V23.1553C255.574 23.0726 255.292 23.0347 255.009 23.043C254.739 23.032 254.47 23.0796 254.22 23.1825C253.971 23.2854 253.746 23.4411 253.562 23.639C253.378 23.8369 253.239 24.0723 253.155 24.3289C253.07 24.5856 253.042 24.8575 253.073 25.126V30.4961H251.214L251.214 21.4424Z" fill="white"/>
<path id="Vector_28" d="M264.413 27.8369C264.163 29.4805 262.562 30.6084 260.514 30.6084C257.881 30.6084 256.246 28.8437 256.246 26.0127C256.246 23.1729 257.889 21.3311 260.436 21.3311C262.941 21.3311 264.516 23.0518 264.516 25.7969V26.4336H258.122V26.5459C258.092 26.8791 258.134 27.2148 258.244 27.5306C258.354 27.8464 258.53 28.1352 258.761 28.3778C258.991 28.6203 259.27 28.8111 259.58 28.9374C259.89 29.0637 260.223 29.1226 260.557 29.1103C260.996 29.1515 261.437 29.0498 261.814 28.8203C262.191 28.5909 262.483 28.246 262.648 27.8369L264.413 27.8369ZM258.131 25.1348H262.657C262.674 24.8352 262.628 24.5354 262.523 24.2541C262.419 23.9729 262.257 23.7164 262.049 23.5006C261.84 23.2849 261.589 23.1145 261.312 23.0003C261.034 22.8861 260.736 22.8305 260.436 22.8369C260.134 22.8351 259.834 22.8933 259.554 23.008C259.273 23.1227 259.019 23.2918 258.805 23.5054C258.59 23.7191 258.42 23.973 258.305 24.2527C258.189 24.5323 258.13 24.8321 258.131 25.1348V25.1348Z" fill="white"/>
</g>
<g id="Group_4">
<path id="Vector_29" d="M192.855 8.73101C193.244 8.70305 193.635 8.76191 193.999 8.90335C194.363 9.04478 194.692 9.26526 194.96 9.54889C195.229 9.83251 195.431 10.1722 195.552 10.5435C195.674 10.9148 195.711 11.3083 195.662 11.6959C195.662 13.6021 194.632 14.6979 192.855 14.6979H190.699V8.73101H192.855ZM191.626 13.854H192.751C193.03 13.8707 193.308 13.825 193.567 13.7204C193.825 13.6158 194.057 13.4548 194.246 13.2493C194.434 13.0437 194.574 12.7987 194.656 12.5321C194.738 12.2655 194.76 11.9839 194.719 11.708C194.757 11.4332 194.733 11.1534 194.65 10.8887C194.567 10.6241 194.426 10.3811 194.238 10.1771C194.05 9.97322 193.819 9.81341 193.562 9.70917C193.305 9.60494 193.028 9.55885 192.751 9.57422H191.626V13.854Z" fill="white"/>
<path id="Vector_30" d="M196.709 12.4444C196.681 12.1485 196.715 11.8499 196.808 11.5679C196.902 11.2858 197.054 11.0264 197.254 10.8065C197.454 10.5865 197.698 10.4107 197.97 10.2904C198.241 10.1702 198.535 10.108 198.833 10.108C199.13 10.108 199.424 10.1702 199.696 10.2904C199.968 10.4107 200.211 10.5865 200.411 10.8065C200.611 11.0264 200.763 11.2858 200.857 11.5679C200.951 11.8499 200.984 12.1485 200.956 12.4444C200.985 12.7406 200.952 13.0396 200.858 13.3221C200.764 13.6047 200.613 13.8645 200.413 14.0849C200.213 14.3053 199.969 14.4814 199.697 14.602C199.425 14.7225 199.13 14.7848 198.833 14.7848C198.535 14.7848 198.241 14.7225 197.969 14.602C197.696 14.4814 197.453 14.3053 197.253 14.0849C197.053 13.8645 196.901 13.6047 196.807 13.3221C196.714 13.0396 196.68 12.7406 196.709 12.4444V12.4444ZM200.042 12.4444C200.042 11.4683 199.604 10.8975 198.834 10.8975C198.062 10.8975 197.627 11.4683 197.627 12.4444C197.627 13.4283 198.062 13.9947 198.834 13.9947C199.604 13.9947 200.042 13.4244 200.042 12.4444H200.042Z" fill="white"/>
<path id="Vector_31" d="M206.602 14.6978H205.68L204.749 11.3813H204.679L203.752 14.6978H202.839L201.598 10.1948H202.499L203.306 13.6308H203.372L204.298 10.1948H205.151L206.076 13.6308H206.147L206.949 10.1948H207.838L206.602 14.6978Z" fill="white"/>
<path id="Vector_32" d="M208.882 10.1949H209.737V10.9102H209.804C209.916 10.6533 210.106 10.4379 210.347 10.2941C210.588 10.1503 210.868 10.0852 211.148 10.1079C211.367 10.0915 211.587 10.1245 211.791 10.2046C211.996 10.2847 212.18 10.4098 212.33 10.5707C212.479 10.7315 212.591 10.924 212.656 11.1338C212.721 11.3436 212.738 11.5654 212.706 11.7827V14.6977H211.818V12.0059C211.818 11.2823 211.503 10.9224 210.846 10.9224C210.697 10.9155 210.549 10.9408 210.411 10.9966C210.272 11.0525 210.148 11.1375 210.046 11.2459C209.944 11.3543 209.866 11.4834 209.819 11.6246C209.771 11.7657 209.755 11.9154 209.771 12.0635V14.6978H208.882L208.882 10.1949Z" fill="white"/>
<path id="Vector_33" d="M214.122 8.43701H215.011V14.6978H214.122V8.43701Z" fill="white"/>
<path id="Vector_34" d="M216.246 12.4444C216.218 12.1484 216.252 11.8499 216.346 11.5678C216.44 11.2857 216.591 11.0263 216.791 10.8064C216.991 10.5864 217.235 10.4106 217.507 10.2903C217.779 10.17 218.073 10.1079 218.37 10.1079C218.667 10.1079 218.961 10.17 219.233 10.2903C219.505 10.4106 219.749 10.5864 219.949 10.8064C220.149 11.0263 220.3 11.2857 220.394 11.5678C220.488 11.8499 220.522 12.1484 220.494 12.4444C220.523 12.7406 220.489 13.0396 220.395 13.3221C220.302 13.6046 220.15 13.8645 219.95 14.0849C219.75 14.3053 219.506 14.4814 219.234 14.6019C218.962 14.7225 218.668 14.7847 218.37 14.7847C218.072 14.7847 217.778 14.7225 217.506 14.6019C217.234 14.4814 216.99 14.3053 216.79 14.0849C216.59 13.8645 216.438 13.6046 216.345 13.3221C216.251 13.0396 216.217 12.7406 216.246 12.4444V12.4444ZM219.579 12.4444C219.579 11.4683 219.141 10.8975 218.371 10.8975C217.599 10.8975 217.164 11.4683 217.164 12.4444C217.164 13.4283 217.599 13.9947 218.371 13.9947C219.141 13.9947 219.579 13.4244 219.579 12.4444H219.579Z" fill="white"/>
<path id="Vector_35" d="M221.429 13.4243C221.429 12.6138 222.033 12.1465 223.104 12.0801L224.324 12.0098V11.6211C224.324 11.1455 224.009 10.877 223.402 10.877C222.906 10.877 222.562 11.0591 222.464 11.3774H221.603C221.694 10.604 222.422 10.1079 223.443 10.1079C224.572 10.1079 225.209 10.6699 225.209 11.6211V14.6978H224.353V14.0649H224.283C224.14 14.2919 223.94 14.477 223.702 14.6012C223.464 14.7254 223.198 14.7843 222.93 14.7719C222.741 14.7916 222.55 14.7714 222.369 14.7127C222.189 14.654 222.022 14.5581 221.881 14.4311C221.739 14.3042 221.626 14.149 221.548 13.9756C221.471 13.8021 221.43 13.6144 221.429 13.4243V13.4243ZM224.324 13.0395V12.6631L223.224 12.7334C222.604 12.7749 222.323 12.9858 222.323 13.3828C222.323 13.7881 222.674 14.0239 223.158 14.0239C223.3 14.0382 223.443 14.0239 223.579 13.9819C223.715 13.9398 223.841 13.8707 223.95 13.7789C224.058 13.6871 224.148 13.5743 224.212 13.4473C224.276 13.3202 224.314 13.1816 224.324 13.0395V13.0395Z" fill="white"/>
<path id="Vector_36" d="M226.377 12.4444C226.377 11.0215 227.108 10.1201 228.246 10.1201C228.527 10.1072 228.806 10.1746 229.051 10.3145C229.295 10.4544 229.495 10.661 229.627 10.9101H229.693V8.43701H230.582V14.6978H229.73V13.9863H229.66C229.518 14.2338 229.312 14.4378 229.062 14.5763C228.813 14.7148 228.531 14.7825 228.246 14.772C227.1 14.772 226.377 13.8706 226.377 12.4444ZM227.295 12.4444C227.295 13.3994 227.745 13.9741 228.498 13.9741C229.247 13.9741 229.71 13.3911 229.71 12.4483C229.71 11.5098 229.242 10.9185 228.498 10.9185C227.75 10.9185 227.295 11.4971 227.295 12.4444H227.295Z" fill="white"/>
<path id="Vector_37" d="M234.258 12.4444C234.23 12.1485 234.264 11.8499 234.358 11.5679C234.452 11.2858 234.603 11.0264 234.803 10.8065C235.003 10.5865 235.247 10.4107 235.519 10.2904C235.791 10.1702 236.085 10.108 236.382 10.108C236.679 10.108 236.973 10.1702 237.245 10.2904C237.517 10.4107 237.761 10.5865 237.961 10.8065C238.161 11.0264 238.312 11.2858 238.406 11.5679C238.5 11.8499 238.534 12.1485 238.505 12.4444C238.534 12.7406 238.501 13.0396 238.407 13.3221C238.314 13.6047 238.162 13.8645 237.962 14.0849C237.762 14.3053 237.518 14.4814 237.246 14.602C236.974 14.7225 236.68 14.7848 236.382 14.7848C236.084 14.7848 235.79 14.7225 235.518 14.602C235.246 14.4814 235.002 14.3053 234.802 14.0849C234.602 13.8645 234.45 13.6047 234.357 13.3221C234.263 13.0396 234.23 12.7406 234.258 12.4444V12.4444ZM237.591 12.4444C237.591 11.4683 237.153 10.8975 236.383 10.8975C235.611 10.8975 235.176 11.4683 235.176 12.4444C235.176 13.4283 235.611 13.9947 236.383 13.9947C237.153 13.9947 237.591 13.4244 237.591 12.4444Z" fill="white"/>
<path id="Vector_38" d="M239.698 10.1949H240.553V10.9102H240.62C240.732 10.6533 240.922 10.4379 241.163 10.2941C241.404 10.1503 241.684 10.0852 241.964 10.1079C242.183 10.0915 242.403 10.1245 242.607 10.2046C242.812 10.2847 242.996 10.4098 243.145 10.5707C243.295 10.7315 243.407 10.924 243.472 11.1338C243.537 11.3436 243.554 11.5654 243.522 11.7827V14.6977H242.633V12.0059C242.633 11.2823 242.319 10.9224 241.662 10.9224C241.513 10.9155 241.364 10.9408 241.226 10.9966C241.088 11.0525 240.964 11.1375 240.862 11.2459C240.76 11.3543 240.682 11.4834 240.635 11.6246C240.587 11.7657 240.571 11.9154 240.587 12.0635V14.6978H239.698V10.1949Z" fill="white"/>
<path id="Vector_39" d="M248.544 9.07373V10.2153H249.519V10.9639H248.544V13.2793C248.544 13.751 248.738 13.9575 249.18 13.9575C249.294 13.9572 249.407 13.9503 249.519 13.937V14.6772C249.36 14.7058 249.198 14.721 249.036 14.7226C248.047 14.7226 247.654 14.375 247.654 13.5068V10.9638H246.939V10.2153H247.654V9.07373H248.544Z" fill="white"/>
<path id="Vector_40" d="M250.733 8.43701H251.614V10.9185H251.684C251.802 10.6591 251.998 10.4425 252.243 10.2982C252.489 10.1539 252.773 10.0888 253.057 10.1118C253.275 10.1 253.493 10.1364 253.695 10.2184C253.898 10.3004 254.079 10.4261 254.227 10.5864C254.376 10.7468 254.486 10.9378 254.552 11.146C254.618 11.3541 254.637 11.5742 254.608 11.7905V14.6978H253.718V12.0098C253.718 11.2905 253.383 10.9263 252.756 10.9263C252.603 10.9137 252.449 10.9347 252.305 10.9878C252.162 11.0408 252.031 11.1247 251.923 11.2334C251.815 11.3421 251.732 11.4732 251.68 11.6173C251.628 11.7614 251.608 11.9152 251.622 12.0679V14.6977H250.733L250.733 8.43701Z" fill="white"/>
<path id="Vector_41" d="M259.79 13.4819C259.669 13.8934 259.407 14.2494 259.051 14.4876C258.694 14.7257 258.265 14.8309 257.839 14.7846C257.542 14.7924 257.247 14.7356 256.975 14.6181C256.702 14.5006 256.458 14.3251 256.26 14.104C256.063 13.8829 255.915 13.6213 255.828 13.3375C255.742 13.0537 255.718 12.7544 255.758 12.4604C255.719 12.1655 255.743 11.8656 255.83 11.5809C255.916 11.2962 256.063 11.0335 256.26 10.8104C256.457 10.5873 256.699 10.4092 256.971 10.2879C257.243 10.1667 257.537 10.1053 257.835 10.1079C259.088 10.1079 259.843 10.9639 259.843 12.3779V12.688H256.664V12.7378C256.65 12.903 256.671 13.0693 256.725 13.2261C256.779 13.3828 256.865 13.5265 256.978 13.648C257.091 13.7694 257.228 13.866 257.38 13.9314C257.533 13.9968 257.697 14.0296 257.863 14.0278C258.075 14.0533 258.291 14.015 258.482 13.9178C258.672 13.8206 258.83 13.6688 258.934 13.4819L259.79 13.4819ZM256.664 12.0307H258.938C258.949 11.8796 258.929 11.7278 258.878 11.5851C258.827 11.4423 258.747 11.3119 258.642 11.202C258.538 11.0922 258.412 11.0053 258.272 10.9472C258.132 10.889 257.981 10.8607 257.83 10.8642C257.676 10.8623 257.523 10.8911 257.381 10.9491C257.239 11.007 257.109 11.0929 257.001 11.2016C256.892 11.3103 256.806 11.4397 256.748 11.5821C256.69 11.7245 256.662 11.877 256.664 12.0307H256.664Z" fill="white"/>
</g>
</g>
</g>
</g>
</g>
<defs>
<linearGradient id="paint0_linear" x1="21.7996" y1="8.70976" x2="5.01723" y2="25.4922" gradientUnits="userSpaceOnUse">
<stop stop-color="#00A0FF"/>
<stop offset="0.00657" stop-color="#00A1FF"/>
<stop offset="0.2601" stop-color="#00BEFF"/>
<stop offset="0.5122" stop-color="#00D2FF"/>
<stop offset="0.7604" stop-color="#00DFFF"/>
<stop offset="1" stop-color="#00E3FF"/>
</linearGradient>
<linearGradient id="paint1_linear" x1="33.8343" y1="20.0015" x2="9.63738" y2="20.0015" gradientUnits="userSpaceOnUse">
<stop stop-color="#FFE000"/>
<stop offset="0.4087" stop-color="#FFBD00"/>
<stop offset="0.7754" stop-color="#FFA500"/>
<stop offset="1" stop-color="#FF9C00"/>
</linearGradient>
<linearGradient id="paint2_linear" x1="24.8269" y1="22.2962" x2="2.06857" y2="45.0545" gradientUnits="userSpaceOnUse">
<stop stop-color="#FF3A44"/>
<stop offset="1" stop-color="#C31162"/>
</linearGradient>
<linearGradient id="paint3_linear" x1="7.29723" y1="0.176237" x2="17.4598" y2="10.3388" gradientUnits="userSpaceOnUse">
<stop stop-color="#32A071"/>
<stop offset="0.0685" stop-color="#2DA771"/>
<stop offset="0.4762" stop-color="#15CF74"/>
<stop offset="0.8009" stop-color="#06E775"/>
<stop offset="1" stop-color="#00F076"/>
</linearGradient>
<clipPath id="clip0">
<rect width="135" height="40" fill="white" transform="translate(147)"/>
</clipPath>
</defs>
</svg>
